# Blender v2.81 (sub 16) OBJ File: 'paper_airplane_0.blend'
# www.blender.org
mtllib paper_airplane.mtl
o PaperAirplane_Plane
v -0.078264 0.028826 -0.120374
v 0.078274 0.029150 -0.120374
v -0.000000 0.000000 -0.120374
v 0.000000 0.000000 0.158481
v -0.000084 0.002221 0.006121
v 0.000086 0.002221 0.006121
v -0.003798 0.032098 -0.120374
v 0.003701 0.032109 -0.120374
v 0.004256 0.032579 0.071402
v -0.004408 0.032561 0.071402
v -0.001955 0.033836 -0.030883
v 0.001716 0.033848 -0.030883
v -0.041031 0.029246 -0.120374
v 0.040988 0.029414 -0.120374
v -0.040110 0.032319 -0.075628
v 0.039995 0.032487 -0.075628
v -0.000000 0.000000 -0.120374
v 0.000000 0.000000 0.158481
v 0.000000 0.000000 0.158481
v 0.000000 0.000000 0.158481
v 0.078274 0.029150 -0.120374
v 0.004256 0.032579 0.071402
v 0.004256 0.032579 0.071402
v 0.004256 0.032579 0.071402
v -0.078264 0.028826 -0.120374
v -0.004408 0.032561 0.071402
v -0.004408 0.032561 0.071402
v -0.004408 0.032561 0.071402
v 0.003701 0.032109 -0.120374
v -0.003798 0.032098 -0.120374
v 0.001716 0.033848 -0.030883
v -0.001955 0.033836 -0.030883
vt 0.337670 0.683862
vt 0.497793 0.990381
vt 0.014148 0.585946
vt 0.497793 0.990381
vt 0.657675 0.683833
vt 0.980954 0.585724
vt 0.497793 0.990381
vt 0.337670 0.683862
vt 0.344507 0.010118
vt 0.497509 0.010351
vt 0.497509 0.010351
vt 0.650598 0.010078
vt 0.657675 0.683833
vt 0.497793 0.990381
vt 0.003837 0.417080
vt 0.990916 0.416766
vt -0.005319 0.008076
vt 0.169594 0.009097
vt 0.337670 0.683862
vt 0.344507 0.010118
vt 0.650598 0.010078
vt 0.825458 0.009077
vt 0.657675 0.683833
vt 1.000319 0.008076
vt 0.003837 0.417080
vt -0.000741 0.212578
vt 0.337670 0.683862
vt -0.005319 0.008076
vt 1.000319 0.008076
vt 0.995618 0.212421
vt 0.657675 0.683833
vt 0.990916 0.416766
vn 0.9922 -0.1249 -0.0053
vn 0.9911 -0.1332 -0.0014
vn 0.9956 -0.0910 -0.0212
vn -0.9904 -0.1380 -0.0014
vn -0.9915 -0.1300 -0.0052
vn -0.9950 -0.0974 -0.0206
vn -0.9923 0.1234 0.0010
vn 0.9918 0.1274 0.0012
vn 0.9963 -0.0815 -0.0257
vn -0.9958 -0.0881 -0.0250
vn 0.0070 0.9998 -0.0151
vn 0.0357 0.9993 -0.0096
vn 0.0408 0.9991 -0.0087
vn 0.0721 0.9974 -0.0026
vn -0.0764 0.9971 -0.0026
vn -0.0399 0.9991 -0.0096
vn -0.0450 0.9989 -0.0087
vn -0.0113 0.9998 -0.0151
vn -0.0486 -0.9987 -0.0112
vn -0.1092 -0.9937 -0.0259
vn -0.0723 -0.9972 -0.0169
vn -0.1198 -0.9924 -0.0285
vn 0.1243 -0.9918 -0.0285
vn 0.1137 -0.9932 -0.0259
vn 0.0766 -0.9969 -0.0169
vn 0.0528 -0.9985 -0.0112
usemtl Material
s 1
f 23/1/1 20/2/2 6/3/3
f 19/4/4 27/5/5 5/6/6
f 18/7/7 24/8/7 29/9/7 17/10/7
f 3/11/8 30/12/8 28/13/8 4/14/8
f 6/3/3 31/15/9 23/1/1
f 32/16/10 5/6/6 27/5/5
f 21/17/11 14/18/12 22/19/13
f 14/18/12 8/20/14 22/19/13
f 7/21/15 13/22/16 26/23/17
f 13/22/16 25/24/18 26/23/17
f 12/25/19 16/26/20 9/27/21
f 16/26/20 2/28/22 9/27/21
f 1/29/23 15/30/24 10/31/25
f 15/30/24 11/32/26 10/31/25
